<svg xmlns="http://www.w3.org/2000/svg" viewBox="0 0 640 340" width="640" height="340" font-family="'Segoe UI',Arial,sans-serif">
  <!-- Background -->
  <rect width="640" height="340" fill="#f3f4f6" rx="10"/>

  <!-- Sidebar -->
  <rect width="160" height="340" fill="#1e2a3a" rx="10"/>
  <rect x="150" width="10" height="340" fill="#1e2a3a"/>
  <text x="80" y="38" text-anchor="middle" fill="#94a3b8" font-size="11" font-weight="700" letter-spacing="1.5">ALLURE</text>

  <!-- Sidebar items -->
  <rect x="8" y="52" width="144" height="30" fill="#2d3f55" rx="5"/>
  <text x="22" y="72" fill="#f0f9ff" font-size="12">📊 Overview</text>
  <text x="22" y="100" fill="#64748b" font-size="12">🗂 Suites</text>
  <text x="22" y="124" fill="#64748b" font-size="12">🏷 Behaviors</text>
  <text x="22" y="148" fill="#64748b" font-size="12">📌 Categories</text>
  <text x="22" y="172" fill="#64748b" font-size="12">⏱ Timeline</text>
  <text x="22" y="196" fill="#64748b" font-size="12">📈 Graphs</text>

  <!-- Main content area -->
  <!-- Top header -->
  <rect x="168" y="8" width="464" height="44" fill="#ffffff" rx="6"/>
  <text x="184" y="35" fill="#1e293b" font-size="15" font-weight="700">Test Report</text>
  <rect x="530" y="18" width="90" height="24" fill="#22c55e" rx="4"/>
  <text x="575" y="35" text-anchor="middle" fill="white" font-size="11" font-weight="700">26 passed</text>

  <!-- Stats cards row -->
  <!-- Total -->
  <rect x="168" y="62" width="90" height="70" fill="#ffffff" rx="6"/>
  <text x="213" y="93" text-anchor="middle" fill="#1e293b" font-size="26" font-weight="700">26</text>
  <text x="213" y="113" text-anchor="middle" fill="#64748b" font-size="11">Total</text>

  <!-- Passed -->
  <rect x="268" y="62" width="90" height="70" fill="#f0fdf4" rx="6" stroke="#86efac" stroke-width="1"/>
  <text x="313" y="93" text-anchor="middle" fill="#15803d" font-size="26" font-weight="700">24</text>
  <text x="313" y="113" text-anchor="middle" fill="#16a34a" font-size="11">Passed</text>

  <!-- Failed -->
  <rect x="368" y="62" width="90" height="70" fill="#fef2f2" rx="6" stroke="#fca5a5" stroke-width="1"/>
  <text x="413" y="93" text-anchor="middle" fill="#dc2626" font-size="26" font-weight="700">2</text>
  <text x="413" y="113" text-anchor="middle" fill="#dc2626" font-size="11">Failed</text>

  <!-- Broken -->
  <rect x="468" y="62" width="90" height="70" fill="#fffbeb" rx="6" stroke="#fde68a" stroke-width="1"/>
  <text x="513" y="93" text-anchor="middle" fill="#d97706" font-size="26" font-weight="700">0</text>
  <text x="513" y="113" text-anchor="middle" fill="#d97706" font-size="11">Broken</text>

  <!-- Pie chart area -->
  <rect x="568" y="62" width="64" height="70" fill="#ffffff" rx="6"/>
  <circle cx="600" cy="97" r="26" fill="#e5e7eb"/>
  <path d="M600,71 A26,26 0 1,1 574.4,110 L600,97 Z" fill="#22c55e"/>
  <path d="M600,71 A26,26 0 0,0 574.4,110 L600,97 Z" fill="#ef4444"/>
  <text x="600" y="124" text-anchor="middle" fill="#64748b" font-size="9">92%</text>

  <!-- Duration bar -->
  <rect x="168" y="142" width="464" height="22" fill="#ffffff" rx="4"/>
  <text x="184" y="158" fill="#64748b" font-size="11">⏱ Total duration: 4.8s</text>
  <text x="530" y="158" fill="#64748b" font-size="11">3 suites · 26 tests</text>

  <!-- Test rows header -->
  <rect x="168" y="173" width="464" height="22" fill="#e2e8f0" rx="4"/>
  <text x="202" y="188" fill="#475569" font-size="11" font-weight="700">Test Name</text>
  <text x="540" y="188" fill="#475569" font-size="11" font-weight="700">Duration</text>

  <!-- Test rows -->
  <rect x="168" y="198" width="464" height="26" fill="#ffffff" rx="3"/>
  <circle cx="184" cy="211" r="6" fill="#22c55e"/>
  <text x="198" y="215" fill="#1e293b" font-size="11" font-family="'Courier New',monospace">test_create_user_returns_201</text>
  <text x="560" y="215" fill="#22c55e" font-size="11">0.31s</text>

  <rect x="168" y="227" width="464" height="26" fill="#f8fafc" rx="3"/>
  <circle cx="184" cy="240" r="6" fill="#22c55e"/>
  <text x="198" y="244" fill="#1e293b" font-size="11" font-family="'Courier New',monospace">test_get_user_by_id_returns_200</text>
  <text x="560" y="244" fill="#22c55e" font-size="11">0.22s</text>

  <rect x="168" y="256" width="464" height="26" fill="#ffffff" rx="3"/>
  <circle cx="184" cy="269" r="6" fill="#ef4444"/>
  <text x="198" y="273" fill="#1e293b" font-size="11" font-family="'Courier New',monospace">test_login_invalid_password_shows_error</text>
  <text x="560" y="273" fill="#ef4444" font-size="11">1.24s</text>

  <rect x="168" y="285" width="464" height="26" fill="#f8fafc" rx="3"/>
  <circle cx="184" cy="298" r="6" fill="#22c55e"/>
  <text x="198" y="302" fill="#1e293b" font-size="11" font-family="'Courier New',monospace">test_add_to_cart_updates_badge_count</text>
  <text x="560" y="302" fill="#22c55e" font-size="11">0.85s</text>

  <rect x="168" y="314" width="464" height="22" fill="#f1f5f9" rx="3"/>
  <text x="184" y="329" fill="#94a3b8" font-size="10">… 22 more tests (all passed)</text>
</svg>
